<?xml version="1.0" encoding="utf-8"?>
<!-- Generator: Adobe Illustrator 15.0.2, SVG Export Plug-In . SVG Version: 6.00 Build 0)  -->
<!DOCTYPE svg PUBLIC "-//W3C//DTD SVG 1.1//EN" "http://www.w3.org/Graphics/SVG/1.1/DTD/svg11.dtd">
<svg version="1.1" id="Layer_1" xmlns="http://www.w3.org/2000/svg" xmlns:xlink="http://www.w3.org/1999/xlink" x="0px" y="0px"
	 width="300px" height="300px" viewBox="0 0 300 300" enable-background="new 0 0 300 300" xml:space="preserve">
<path fill="#222" d="M287.193,186.271c-1.281-1.135-2.408-2.174-3.785-3.139c-0.287-0.201-0.59-0.404-0.904-0.604
	c0.451,0.051,0.893,0.125,1.141,0.164c-1.393-2.131-3.58-3.826-5.775-5.248c-0.559-0.361-1.156-0.674-1.787-0.934
	c0.244-0.102,0.514-0.168,0.76-0.244c-2.164-1.459-5.064-2.012-7.748-2.586c-1.361-0.297-2.609-0.645-3.965-0.814
	c1.426-0.719,3.428-1.047,4.746-1.512c-0.908-0.488-3.125-0.338-4.197-0.287c-1.355,0.061-2.748,0.084-4.084,0.186
	c-0.85,0.062-1.742,0.105-2.621,0.215c0.848-0.738,1.77-1.594,2.75-1.912c-2.922,0.047-5.611,1.154-8.463,1.555
	c-0.705,0.1-1.453,0.232-2.172,0.434c0.924-0.801,2.186-1.355,2.693-2.42c-0.969,0.564-2.279,0.717-3.271,1.162
	c-1.006,0.445-1.965,0.941-2.971,1.373c-1.986,0.861-3.945,1.691-5.914,2.455c0.062-0.494,0.451-0.666,0.4-1.166
	c-1.096,0.758-2.395,1.641-3.512,2.441c-1.131,0.816-2.389,1.234-3.545,1.98c-0.377,0.246-1.104,0.643-1.854,1.102
	c-1.135,0.084-2.254,0.117-3.447,0.312c-2.338,0.383-4.838,1.367-7.164,1.635c0.658-0.73,1.428-1.619,2.066-2.344
	c-1.688,0.191-4.107,1.584-5.604,2.375c-1.621,0.855-3.562,2.678-5.332,3.125c-0.887-1.814,4.383-3.85,5.492-4.877
	c-3.977,0.811-8.141,2.973-11.303,5.162c-1.621,1.123-3.092,2.225-4.887,3.012c-0.891,0.395-1.807,0.869-2.678,1.41
	c-1.709-0.752-3.73-0.957-5.576-0.742c0.045-0.203-0.096-0.439,0.025-0.688c-0.863-0.363-2.398-0.07-3.459-0.125
	c-1.492-0.076-2.867,0.16-4.316,0.566c0.689-0.719,2.014-1.312,2.988-1.744c-2.256-0.689-6.68,1.199-8.885,1.891
	c-0.5-1.119,0.271-2.586,0.709-3.613c-1.381,0.459-2.666,0.934-3.842,1.771c-1.139,0.809-2.219,2.223-3.496,2.777
	c0.213-0.92,1.244-1.725,1.744-2.496c-2.143,0.35-4.229,1.717-6.139,2.637c-1.842,0.885-3.375,1.604-5.414,2.23
	c-2.195,0.678-3.812,0.641-6.094,0.576c-1.887-0.053-3.736,0.27-5.645,0.207c0.311,0.279,0.59,0.566,0.863,0.848
	c-1.248-0.262-2.576-0.775-3.518-1.072c-1.91-0.6-3.934-1.232-5.662-2.193c-3.41-1.904-6.965-3.629-10.021-6.033
	c-1.17-0.924-2.504-1.445-3.781-2.182c-1.309-0.756-2.514-1.527-3.982-2.072c-0.613-0.225-1.207-0.414-1.785-0.555
	c0.893-0.379,2.154-0.461,3.076-0.385c-1.658-1.043-4.316-1.301-6.287-1.645c-2.26-0.393-4.508-0.852-6.828-0.809
	c0.615-0.266,1.391-0.639,2.113-0.709c-1.219-0.613-3.074-0.498-4.453-0.738c-1.359-0.232-2.746-0.436-4.088-0.619
	c-0.299-0.043-0.602-0.066-0.91-0.082c0.854-0.238,1.875-0.381,2.383-0.818c-2.738-0.426-5.223-1.072-8.084-1.021
	c-2.33,0.043-5.539-0.102-7.588,0.418c1.191-0.355,1.922-1.213,2.896-1.439c-3.674,0.186-7.352-0.324-11.064,0.074
	c-0.186,0.021-0.369,0.041-0.553,0.066c0.193-0.078,0.383-0.158,0.564-0.254c0.783-0.426,1.557-1.059,2.203-1.643
	c-1.184,0.059-2.697,0.295-4.084,0.533c0-0.045,0-0.096,0-0.137c0.008-2.914-0.572-5.756-0.229-8.703
	c-1.975,1.732-4.264,2.834-6.539,4.139c-1.508,0.867-3,2.176-4.766,2.41c-0.043-0.439-0.096-0.879-0.17-1.324
	c-0.189-1.148-0.621-2.957-1.121-4.014c-0.795-1.691-1.975-0.703-3.004,0.164c-1.033,0.869-2.246,1.561-3.369,2.279
	c-1.084,0.695-1.779,1.303-2.918,1.908c-1.18,0.631-2.277,1.832-2.809,2.951c-0.18,0.381-0.318,0.764-0.459,1.143
	c-0.139,0.1-0.268,0.197-0.395,0.271c-0.971,0.604-1.945,1.287-3.01,1.771c-0.541,0.246-1.105,0.334-1.635,0.545
	c-0.482,0.186-0.92,0.627-1.408,0.639c0.049-0.428-0.02-0.855,0.113-1.295c-1.506,0.648-2.881,1.633-4.475,2.09
	c0.113-0.588,0.256-1.154,0.457-1.664c-1.562,0.836-3.619,0.973-5.32,1.418c-1.354,0.352-4.674,0.043-5.373,1.182
	c-0.045-0.014-0.422,0.537-0.465,0.555c-0.039,0.066-1.529,1.453-1.572,1.51c-1.24,1.58-2.252,2.564-3.148,3.418
	c-0.893,0.852-5.59,3.547-7.82,3.877c-1.061,0.1-13.229,0.992-15.322,1.111c-0.227,0.018-0.51-0.104-0.727-0.141
	c-0.32,1.955,0.883,5.137,3.113,5.852c0.34,1.537,0.604,2.678,2.076,3.557c1.344,0.805,2.531,1.387,4.07,1.664
	c0.707,1.111,2.031,2.242,2.953,2.656c-0.061-0.828,0.02-1.582,0.244-2.328c2.842,0.256,7.285,0.65,9.932,0.979
	c-0.197,0.275-0.408,0.564-0.645,0.873c-0.662,0.857-1.533,1.273-2.461,1.885c-0.668,0.445-1.352,0.994-2.012,1.535
	c-1.176-0.348-2.451-0.912-2.83-1.805c0.047,1.053,0.457,2.205,1.172,3.082c-0.408,0.256-0.848,0.492-1.176,0.789
	c-0.531,0.477-0.537,0.498,0.049,1.049c0.766,0.73,1.947,1.9,2.916,2.396c0.559,0.283,1.316,0.354,1.91,0.314
	c0.5-0.031,1.174-0.209,1.555-0.398c1.949-0.949,10.021-3.018,21.793-1.195c-0.922-0.48-1.379-0.809-1.672-1.07
	c0.324,0.1,0.652,0.189,1,0.266c2.039,0.447,3.711,0.947,5.291,2.143c-0.293-1.012-1.348-1.5-1.969-2.328
	c1.607,0.234,4.916,1.137,5.539,2.621c1.195,0.248,2.334,0.6,3.422,1.021c-0.062,0.768-0.139,1.529-0.254,2.281
	c0.34-0.236,0.68-0.473,1.027-0.697c0.043-0.029,0.102-0.064,0.154-0.092c0.115,0.604,0.084,1.312,0.09,1.711
	c0.688-0.525,1.527-1.225,2.486-1.562c1.51,0.826,2.949,1.756,4.338,2.703c1.631,1.115,3.154,2.188,4.639,3.312
	c0.283,0.52,0.344,1.029,0.434,1.592c0.176,1.057,1.283,2.734,0.961,3.744c-0.178-0.316-0.488-0.672-0.715-0.893
	c0.053,1.713,1.133,3.445,1.129,5.139c-0.006,0.992-0.025,1.979,0.174,2.92c-1.949,0.887-3.402,2.217-5.688,2.521
	c-1.818,0.24-3.525,0.1-5.488,0.406c-1.92,0.307-4.084-0.572-5.051,1.332c-0.389,0.775-0.846,1.818-1.396,2.533
	c-0.439,0.574-0.912,1.051-1.279,1.646c-0.799,1.051-1.605,2.254-2.34,3.043c-1.133,1.215-1.959,2.342-3.299,3.414
	c-0.686,0.549-1.207,0.992-2.025,1.346c-0.867,0.375-1.918,0.482-2.592,1.176c-1.023,1.047-1.271,3.135-1.9,4.424
	c-0.588,1.217-1.688,2.998-2.922,3.779c1.371,1.926,3.898,2.535,5.646,1.043c0.828,0.393,1.697,0.699,2.719,0.547
	c0.836-0.125,1.332-0.596,2.094-0.797c0.781-0.207,1.574-0.094,2.354-0.477c1.238-0.6,2.389-1.873,3.133-2.963
	c0.805-1.182,0.768-2.576,1.652-3.719c-0.002,0.266,0.16,0.584,0.168,0.832c0.668-0.811,1.211-1.822,1.945-2.611
	c0.855-0.916,1.814-1.402,2.812-2.172c-0.047,0.148,0.02,0.49-0.006,0.639c1.234-0.752,3.357-1.475,4.854-1.531
	c1.719-0.062,3.234-0.41,4.951-0.326c0.031,0,0.064,0.002,0.09,0.004c-1.371,0.73-2.65,1.592-3.23,1.824
	c0.004-0.223-0.154-0.479-0.123-0.717c-1.451,1.1-2.785,2.93-4.775,3.283c0.002-0.176-0.088-0.387-0.088-0.527
	c-1.135,1.131-2.312,1.975-3.545,2.979c-1.148,0.922-3.463,2.211-4.08,3.395c0.311-0.109,0.74-0.121,1.045-0.234
	c-2.096,2.148-3.811,3.762-6.621,5.072c-4.008,1.869-3.197,5.578-4.008,9.041c-0.344,1.451-2.117,3.193-0.303,4.154
	c1.57,0.83,2.707,0.488,3.658-0.348c1.523,0.422,3.82-0.242,4.984-0.83c1.777-0.898,3.088-2.336,3.906-4.012
	c0.721-1.461,0.256-3.178,1.297-4.596c0.609-0.828,1.688-1.492,2.574-2.066c0.963-0.619,2.934-1.553,3.352-2.404
	c0,0.408-0.072,0.812-0.168,1.201c1.432-1.633,3.295-2.785,5.295-3.951c0.045-0.027,0.096-0.059,0.145-0.088
	c0.018,0.746-0.627,1.688-0.672,2.381c1.191-1.166,2.121-1.787,3.51-2.645c1.395-0.857,2.412-2.17,3.705-3.105
	c-0.135,0.439-0.324,0.855-0.211,1.275c0.748-1.158,2.396-1.932,3.793-2.635c-0.1,0.311-0.152,0.621-0.051,0.945
	c1.943-0.256,3.631-1.748,5.625-2.273c1.363-0.359,1.711-0.184,3.021,0.01c1.023,0.152,1.961-0.156,2.961-0.133
	c0.09-0.984,0.902-1.955,1.557-2.662c0.051,0.123,0.131,0.256,0.174,0.381c0.867-0.305,1.719-1.75,2.463-2.336
	c1.012-0.803,1.98-1.662,2.953-2.51c0.213-0.188,0.424-0.377,0.631-0.572c-0.041,0.717-0.246,1.451-0.221,2.152
	c1.418-1.17,3.021-1.902,4.258-3.178c-0.021,0.457-0.137,0.977-0.141,1.395c0.633-0.424,1.23-1.145,1.75-1.717
	c0.568-0.621,1.1-1.811,1.742-2.287c0.605-0.447,1.984-0.514,2.729-0.77c0.99-0.338,2.066-0.768,2.98-1.246
	c0.26-0.137,0.5-0.281,0.725-0.426c0.156,1.371,0.189,2.604,0.92,4.053c0.803-1.287,0.443-3.195,1.436-4.605
	c0.541,1.697,0.9,2.994,2.51,4.066c1.113,0.738,2.568,1.422,3.953,1.574c-0.373-0.645-0.711-1.125-0.984-1.586
	c0.369,0.322,0.699,0.746,1.043,1.031c0.709,0.586,1.438,0.873,2.221,1.32c1.32,0.758,2.578,1.527,4.201,1.451
	c-0.918-0.814-1.387-1.504-1.408-2.311c0.348,0.102,0.691,0.199,1.023,0.287c1.334,0.355,2.754,0.48,4.117,0.729
	c1.342,0.244,2.914,0.887,4.293,0.814c-1.711-0.65-3.793-1.621-5.129-2.771c1.809,0.402,3.928,0.145,5.773,0.297
	c2.273,0.188,4.688,0.502,6.975,0.209c-1.469-0.328-3.109-0.842-4.24-1.705c1.834,0.232,3.977-0.059,5.814-0.369
	c1.764-0.291,4.617-1.086,6.359-0.566c-1.148-0.48-2.162-0.854-3.416-1.107c-0.613-0.125-1.383-0.268-2.078-0.475
	c1.549-0.141,2.775-0.59,4.4-0.846c1.525-0.238,3.4-0.445,4.965-0.48c1.064-0.023,2.154-0.08,3.193-0.32
	c2.07,2.795,3.846,5.629,6.963,7.744c1.504,1.023,3.289,1.768,4.928,2.629c2.074,1.086,4.51,2.244,6.824,2.816
	c-1.059-0.963-3.453-1.984-3.854-3.396c0.326,0.072,0.654,0.158,0.973,0.211c3.645,0.588,6.598,2.293,10.459,2.299
	c2.551,0.004,5.615-0.426,8.055-1.52c0.312,0.184,0.617,0.35,0.922,0.488c1.594,0.717,3.533,0.736,5.064,1.537
	c-0.469-0.492-1.131-0.779-1.631-1.289c3.361,0.441,7.826,1.531,11.482,0.928c0.363,0.367,0.768,0.697,1.484,0.967
	c0.834,0.311,1.773,0.525,2.602,0.791c1.666,0.545,3.213,1.086,4.691,2.082c3.547,2.396,5.143,5.691,6.676,9.254
	c1.238,2.871,2.883,6.457,6.334,7.719c1.48,0.545,3.926,0.646,5.457,0.039c1.143,0.602,2.463,0.979,3.871,0.844
	c2.328-0.217,2.963-1.496,3.316-3.352c0.518-2.709-2.703-7.145-5.396-8.602c-1.395-0.758-3.059-0.861-4.34-1.775
	c-2.814-2.006-5.115-3.533-7.098-6.197c-1.041-1.391-1.727-2.932-2.631-4.439c1.264-0.273,2.623,0.666,3.777,0.873
	c0.848,0.15,1.639-0.133,2.541,0.166c0.855,0.281,1.43,0.998,2.24,1.287c0.898,0.324,1.432,0.17,2.252,0.762
	c0.686,0.494,1.27,1.053,1.969,1.564c0.604,0.439,1.326,0.842,1.873,1.355c0.846,0.787,2.086,1.58,2.639,2.506
	c0.709,1.18,0.715,2.621,1.508,3.779c0.863,1.254,2.15,2.963,3.387,4.008c1.484,1.258,3.418,0.859,5.254,0.809
	c0.756-0.021,1.473,0.07,2.166-0.191c1.123,0.629,2.357,1.184,3.908,0.643c0.891-0.307,1.66-0.746,2.531-1.008
	c1.084-0.326,1.859-0.619,2.398-1.537c2.492-4.258-5.516-4.812-7.611-6.92c-1.102-1.105-1.547-2.199-2.301-3.455
	c-0.734-1.232-1.992-2.178-2.973-3.25c-1.158-1.266-2.91-2.799-4.393-3.693c-0.943-0.572-2.115-0.844-3.027-1.484
	c-0.791-0.543-1.486-1.021-2.324-1.424c-2.188-2.432-6.232-4.053-9.344-4.666c0.961-0.137,2.246-0.367,2.969-0.424
	c-0.852-0.105-1.488-0.564-2.348-0.805c-0.885-0.252-1.844-0.133-2.754-0.309c-1.971-0.373-3.578-0.623-5.617-0.344
	c-3.799,0.529-7.436,1.275-11.203,0.156c-0.434-0.127-0.857-0.322-1.277-0.527c0.707-0.229,1.459-0.393,2.182-0.629
	c-0.928-0.605-1.646-1.26-2.299-1.955c0.016,0.002,0.035,0.008,0.055,0.012c-1.041-2.688-3.014-5.182-3.402-8.182
	c0.258,0.262,0.619,0.568,0.887,0.756c-0.453-1.812-0.92-3.578-1.012-5.387c-0.045-0.867,0.035-1.693,0.363-2.502
	c0.373-0.93,0.486-1.689,0.586-2.729c0.127-1.379,0.318-2.494,0.26-3.732c1.393,0.727,2.764,1.77,4.146,2.35
	c2.078,0.867,4.242,1.465,6.551,1.277c-1.617-0.111-2.922-1.766-3.588-2.955c1.25,1.227,4.199,1.145,5.896,1.156
	c1.715,0.014,3.969,0.949,5.588,0.463c-1.34-0.848-2.928-1.492-4.033-2.271c0.432,0.105,0.848,0.203,1.193,0.24
	c1.006,0.111,1.9,0.119,2.943,0.137c2.049,0.025,4.355,0.02,6.455-0.74c-1.477-0.711-3.4-1.758-4.705-2.424
	c2.557,0.258,8.26,0.041,9.941-1.83c-1.111,0.004-2.146-0.273-3.176-0.637c2.805-1.268,7.338-1.092,9.338-3.154
	c-0.74-0.41-1.842-0.244-2.682-0.105c2.428-1.805,5.014-2.797,7.65-4.285c-0.834-0.105-1.549-0.209-2.225-0.338
	c2.725-1.354,6.033-2.783,9.168-2.611c-0.875-0.281-1.775-0.221-2.631-0.572c-0.314-0.133-0.611-0.312-0.9-0.518
	c1.062-0.213,2.113-0.504,3.184-0.725c2.752-0.557,5.799-0.646,8.537-0.213c-0.533-0.35-1.23-0.812-1.881-0.943
	c1.684-0.275,3.584-0.053,5.318,0.207c1.988,0.295,4.014,0.352,5.963,0.752c-0.078-0.09-0.174-0.168-0.26-0.252
	c0.34,0.066,0.666,0.131,0.963,0.211c1.443,0.371,2.855,0.832,4.293,1.16c2.912,0.658,4.482,2.057,6.479,4.076
	C290.611,190.695,289.686,188.471,287.193,186.271z"/>
<path id="background_1_2_" fill="#222" d="M103.418,150.896c-0.225-0.66,0.156-1.184,0.756-1.42
	c-0.562-0.082-0.357-1.25,1.279-1.613c-1.33-0.643,0.279-1.59,1.506-1.955c-0.379-1.301,10.596-3.574,15.49-3.82
	c0.1-0.52,5.32-1.777,8.896-3.076c-0.137-0.109-0.273-0.322-0.404-0.439c-0.176-1.027,3.842-2.004,4.715-3.547
	c-0.301,0.057-0.684-0.025-0.98,0.031c0.383-0.385,0.77-0.756,1.158-1.127c-0.256-0.064-0.514-0.115-0.785-0.145
	c0.1-0.516,0.348-1.064,0.672-1.516c-0.697,0.533-3.053,1.959-3.414,2.27c-0.859-0.449,0.893-2.762,2.035-3.467
	c-0.631,0.418-1.246,0.85-1.982,1.029c-0.01-0.051,0.008-0.088,0.049-0.107c-0.42,0.148-1.012,0.539-1.203,0.07
	c-0.688,0.299-0.07-0.705,0.01-1.004c-0.391,0.217-0.838,0.479-1.316,0.521c-0.145-0.584,0.111-1.166,0.193-1.713
	c-0.633,0.127-2.512,1.377-1.881-0.445c-1.338,0.381-4.289,1.217-3.793-1.346c-2.373,0.494-2.699-1.498-2.352-3.881
	c-2.371,0.369-2.006-2.43-0.455-3.221c-1.072,0.191-2.055-1.473-0.199-2.404c-2.398-0.242-0.705-3.422,0.104-3.602
	c-2.523,0.002-0.789-3.871,0.877-4.406c-0.027-0.055-0.049-0.111-0.066-0.166c-1.586-0.826-0.795-3.471,0.684-4.074
	c-0.693-0.131-1.055-3.627,2.061-4.252c0.004-0.006,0.004-0.01,0.006-0.016c-1.803,0.373-2.129-1.805-1.717-3.008
	c0.461-1.346,1.469-1.994,2.264-3.113c-1.572-0.979-2.402-2.207-1.51-3.996c0.58-1.166,1.758-2.596,3.055-2.955
	c-0.799-0.287-1.812-0.463-2.449-1.072c-1.182-1.135-0.668-3.189,0.252-4.322c1.008-1.238,2.781-1.762,4.252-2.279
	c0,0-0.072-0.531-0.275-0.709c-0.5-0.449-1.02-0.812-1.707-1.082c-0.033-0.139-0.066-0.346-0.062-0.486
	c0.717-1.076,0.055-1.432-0.885-1.498c-0.148,0.025-0.352-0.02-0.496,0.008c0.168-0.293,0.289-0.572,0.535-0.791
	c-0.166-0.014-0.266-0.064-0.42-0.084c0.139-0.602,0.553-1.205,1.092-1.584c0.951-0.668,2.557-1.123,3.615-1.432
	c0.49-0.141,2.605-0.367,3.098-1.021c0,0-0.477-0.771-1.312-0.926c-1.561-0.254-2.102-1.678-2.705-1.541
	c-0.055-0.096-0.018-0.215-0.049-0.318c-0.672,0.133-0.773-0.357-0.49-0.83c-0.611,0.076-1.316-0.824-1.045-1.314
	c-1.047-0.66,0.158-1.033,0.158-1.398c-0.383,0.029-0.354-0.109-0.598-0.23c0.961-3.014,12.746-1.57,13.705-1.932l-1.717-1.166
	c1.869-0.131-3.514-3.688-4.354-4.213c0.057-0.127,0.035-0.271,0.135-0.43c-1.35-0.773-0.77-2.674-0.166-3.807
	c1.178-2.207,5.289-1.545,7.279-0.961c2.604,0.768,5.115,2.125,7.717,2.754c-0.023-0.076,0.037,0.086,0,0
	c-1.35-0.623-5.469-4.797-5.982-6.234c0.471-0.812-0.9-2.006-1.334-2.002c-0.547-1.455,2.23-1.248,3.062-1.498
	c-1.145,0.035-2.512,0.189-3.609-0.107c-0.307-0.848,0.686-0.859,1.287-0.877c-0.5-0.18-1.252-0.119-1.141-0.844
	c0.51,0.111,1.145,0.035,1.686,0.051c-0.318-0.127-0.574-0.215-0.924-0.215c0.002-0.17,0.113-0.518,0.215-0.68
	c0.965-0.113,1.836,0.006,2.75,0.035c-0.445-0.398-2.104-0.619-2.703-0.773c0.145-0.406,0.73-1.152,1.471-1.186
	c1.027,0.156,6.975,2.803,8.713,4.232c0.883,0.725,3.492,3.852,4.34,4.441c-1.664-1.84-5.318-8.121-6.074-10.963
	c-0.551-2.082,0.148-1.35,0.836-1.367l-0.984-1.238c-0.01,0.195,3.107,0.881,3.107,0.881s-1.404-0.611-3.023-2.094
	c0,0,0.338-1.76,0.945-2.064c0.516-0.26,2.35,0.447,1.275-1.057c1.078,0.488,7.012,4.826,8.537,6.561
	c0.789,0.9,2.357,3.357,2.588,3.684c-0.979-1.973-2.215-5.35-2.502-5.49c0.092-0.125,0.973-0.174,1.033-0.275
	c-0.041-0.014-1.094-0.039-1.115-0.078c-0.146-1.412-0.273-3.109,0.305-4.418c0.086,0.068,0.238,0.152,0.32,0.221
	c-0.068-0.965-0.002-1.896,0.584-2.684c0.193,0.145,0.479,0.17,0.641,0.344c-0.068-0.279-0.018-0.586-0.115-0.838
	c0.107-0.039,0.203-0.07,0.301-0.109c1.277,1.514,2.9,2.65,4.363,3.996c2.115,1.949,4.912,7.131,5.453,8.805
	c1.072,3.301,1,6.949,1.629,10.357c0.275-1.006,0.357-3.148,0.18-4.479c-0.031-0.248-0.457-2.451-0.064-2.695
	c-0.105,0-0.363-0.145-0.527-0.148c-0.07-0.184-0.094-0.561-0.053-0.752c0.195,0.012-0.348-0.475-0.182-1.287
	c0.129-0.02,0.283-0.053,0.406-0.053c-0.082-0.037-0.295-0.248-0.518-0.312c-0.439-0.703-0.379-1.518-0.102-1.438
	c0.213-0.006,0.488-0.164,0.66-0.17c-0.633-0.43-1.119-0.516-0.879-1.439c0.168,0.07,0.383,0.039,0.521,0.088
	c-0.898-1.426,0.438-3.771,1.463-3.793c1.523-0.035,4.336,5.203,4.902,6.5c1.369,3.152,1.656,5.898,1.613,9.301
	c0.057-0.074,0.094-0.154,0.141-0.234c-0.025,0.982-1.855,11.365-3.131,12.658c-0.029,0.248-0.01-0.287,0,0
	c0.225-0.271,0.609-0.57,0.828-0.844c-0.316,0.986-0.643,1.957-0.906,2.943c-0.461,1.734-0.762,3.418-1.229,5.107
	c-0.379,1.396-1.357,3.811-1.051,5.209c2.061-4.416,4.959-0.111,5.068,2.93c0.107,2.906-1.791,5.904-3.188,8.33
	c-0.729,1.27-1.291,2.781-2.311,3.855c-0.924,0.973-2.762,3.037-3.674,4.016c-4.299,4.609-3.051,11.428-3.227,14.414
	c1.373-0.088,2.801-0.031,4.361,0.139c5.479,0.611,15.326,3.625,14.289,11.016c0.037-0.016,0.061-0.021-0.004,0.047v-0.039
	c-0.051,0.029-0.117,0.082,0,0.039c0.533,1.148,0.893,2.85,0.393,4.479c-0.289,0.947-1.705,2.391-3.143,2.254
	c0,0,1.248-0.717-0.213-1.529c0.018,1.043-1.277,1.521-1.979,2.326c-0.09-0.266,0.051-0.195,0.244-0.484
	c-0.775,0.365-1.164,0.955-1.451,1.793c-0.338-0.693-0.256-1.148-0.295-0.977c-0.521,0.719-0.623,1.408-0.602,2.184
	c-0.414-0.143-0.566-0.432-0.619-0.727c-0.896,0.789-1.656,2.264-2.42,3.078c-0.193,0.203-0.615,1.111-1.143,1.357
	c0,0-0.074-0.951-1.084,0.82c0.053,0.225-0.213,0.865-0.545,1.152c-0.793,0.686-1.256,1.836-1.846,2.322
	c-0.244-0.83-1.26,1.281-1.84,1.938c-0.732,0.83-2.033,1.248-2.541,2.137c-0.027-0.148-0.105-0.258-0.137-0.322
	c-0.152,0.844-1.064,0.955-1.533,1.549c-0.672,0.852-0.809,1.277-1.855,1.432c0.096-0.143,0.158-0.314,0.26-0.467
	c-1.072,0.648-1.445,1.732-2.412,2.479c0.012-0.621,0.365-1.225,0.395-1.855c-0.316,0.693-1.523,0.623-2.201,0.752
	c0.021-0.232,0.225-0.488,0.248-0.723c-1.055,0.268-2.35,2.055-3.057,2.029c0.432-0.449,0.982-0.949,0.887-1.65
	c-1.082,0.902-4.85,4.941-6.193,5.031c-0.061-0.098-0.01-0.213-0.061-0.314c-1.619,1.42-2.326,3.424-4.539,3.98
	c0.168-0.305,0.229-0.656,0.455-0.941c-2.023,0.98-2.766,3.596-4.959,4.311c5.33,1.535,8.014,6.699,8.051,9.562
	c0.016,1.121-0.111,2.766-0.863,3.627c-0.684,0.789-2.492,1.736-3.697,0.738c1.143,0.139,1.891,0.041,2.246-0.42
	c-0.457-0.049-0.605-0.193-0.816-0.799c-0.533-0.133-0.842-0.602-1.002-1.184c0.293,0.477,0.764,0.926,1.336,0.773
	c1.064-0.283-0.121-0.746-0.195-1.088c-0.293-1.299,0.836-1.66,0.459-3.057c-0.703,0.223-1.299,0.023-1.299,0.023
	c-0.041,0.225-0.32,0.738-0.852,0.602c-0.109,0.531,0.428,0.945,0.643,1.145c-0.818-0.221-1.24-0.904-1.404-2.029
	c-0.496,1.453-2.951,4.744-4.6,2.984c0.762,0.879,2.094-0.277,2.068-1.188c-0.43,0.186-0.887,0.4-1.328,0.617
	c0.1-0.498,0.246-0.973,0.375-1.449c-0.406,0.506-0.967,0.988-1.379,1.543c0.596-1.762,0.416-2.902-0.027-4.705
	c-0.236,0.312-0.184,0.809-0.838,0.984c-0.402-0.34-0.914-0.031-1.25,0.42c-0.084,0.672,0.295,1.121,0.898,1.678
	c-2.047-0.617-2.094-3.732-0.662-4.906c-1.074-0.031-1.604-0.969-2.791-0.73c-0.057,0.074-0.092,0.229-0.145,0.32
	c-0.174-0.111-0.49-0.635-0.609-0.678c0.061,0.021-1.469-1.021-1.809-1.75c-0.273,0.166-0.533,0.107-0.801,0.32
	c-0.09-0.756,0.154-2.172-0.635-2.479c-0.07-0.424-0.76-1.926-0.902-2.189c-0.35-0.645-0.459-1.836-1.023-2.26
	c-0.33,2.26-1.086,2.707-1.086,2.707c-0.158-1.348-0.393-2.582-0.662-3.857c-1.459,1.264-5.051,3.553-6.924,3.941
	c-0.119-0.633,0.773-1.117,1.178-1.592c-1.52,0.295-2.406,1.85-4.17,1.688c0.496-0.557,1.033-0.506,1.479-1.088
	c-0.982,0.146-1.658,0.504-2.449,1.082c-1.426,1.043-9.855,3.828-9.027,0.156c-0.881,0.441-2.488,0.557-2.873-0.186
	c0.074-0.275,0.051-0.541,0.264-0.789c-0.881,0.037-2.391,0.381-2.529-0.213c-0.332-0.355,0.15-0.617,0.26-0.785
	c-0.664,0.021-2.174,0.256-1.662-0.686c-0.305,0.072-0.201-0.049-0.504,0.02c-1.07-0.367-0.246-1.275,0.367-1.541
	c-0.324,0.057-0.551-0.072-0.873-0.068c-0.277-0.137-0.307-0.512,0.072-0.658c0.471-0.428,1.033-0.693,1.525-0.91
	C104.711,150.805,103.797,151.174,103.418,150.896z"/>
</svg>
